# Tiled2Unity generated file. Do not modify by hand.
# Wavefront file for 'toontown_mesh_0002.obj'

# Vertices (Count = 56)
v -1024 -96 0
v -1156 -96 0
v -1156 5 0
v -1024 5 0
v -1088 -128 0
v -1220 -128 0
v -1220 -27 0
v -1088 -27 0
v -1152 -160 0
v -1284 -160 0
v -1284 -59 0
v -1152 -59 0
v -1216 -192 0
v -1348 -192 0
v -1348 -91 0
v -1216 -91 0
v -1280 -224 0
v -1412 -224 0
v -1412 -123 0
v -1280 -123 0
v -1344 -256 0
v -1476 -256 0
v -1476 -155 0
v -1344 -155 0
v -1408 -288 0
v -1540 -288 0
v -1540 -187 0
v -1408 -187 0
v -1472 -320 0
v -1604 -320 0
v -1604 -219 0
v -1472 -219 0
v -1536 -352 0
v -1668 -352 0
v -1668 -251 0
v -1536 -251 0
v -1600 -384 0
v -1732 -384 0
v -1732 -283 0
v -1600 -283 0
v -1664 -416 0
v -1796 -416 0
v -1796 -315 0
v -1664 -315 0
v -1728 -448 0
v -1860 -448 0
v -1860 -347 0
v -1728 -347 0
v -1792 -480 0
v -1924 -480 0
v -1924 -379 0
v -1792 -379 0
v -1856 -512 0
v -1988 -512 0
v -1988 -411 0
v -1856 -411 0

# Texture cooridinates (Count = 4)
vt 0 0
vt 1 0
vt 1 1
vt 0 1

# Normal
vn 0 0 -1

# Mesh description
g toontown_mesh_0002

# Faces
f 1/1/1 2/2/1 3/3/1 4/4/1
f 5/1/1 6/2/1 7/3/1 8/4/1
f 9/1/1 10/2/1 11/3/1 12/4/1
f 13/1/1 14/2/1 15/3/1 16/4/1
f 17/1/1 18/2/1 19/3/1 20/4/1
f 21/1/1 22/2/1 23/3/1 24/4/1
f 25/1/1 26/2/1 27/3/1 28/4/1
f 29/1/1 30/2/1 31/3/1 32/4/1
f 33/1/1 34/2/1 35/3/1 36/4/1
f 37/1/1 38/2/1 39/3/1 40/4/1
f 41/1/1 42/2/1 43/3/1 44/4/1
f 45/1/1 46/2/1 47/3/1 48/4/1
f 49/1/1 50/2/1 51/3/1 52/4/1
f 53/1/1 54/2/1 55/3/1 56/4/1

