# Tiled2Unity generated file. Do not modify by hand.
# Wavefront file for 'toontown_mesh_0006.obj'

# Vertices (Count = 56)
v -1856 -576 0
v -1988 -576 0
v -1988 -477 0
v -1856 -477 0
v -1792 -608 0
v -1924 -608 0
v -1924 -509 0
v -1792 -509 0
v -1728 -640 0
v -1860 -640 0
v -1860 -541 0
v -1728 -541 0
v -1664 -672 0
v -1796 -672 0
v -1796 -573 0
v -1664 -573 0
v -1600 -704 0
v -1732 -704 0
v -1732 -605 0
v -1600 -605 0
v -1536 -736 0
v -1668 -736 0
v -1668 -637 0
v -1536 -637 0
v -1472 -768 0
v -1604 -768 0
v -1604 -669 0
v -1472 -669 0
v -1408 -800 0
v -1540 -800 0
v -1540 -701 0
v -1408 -701 0
v -1344 -832 0
v -1476 -832 0
v -1476 -733 0
v -1344 -733 0
v -1280 -864 0
v -1412 -864 0
v -1412 -765 0
v -1280 -765 0
v -1216 -896 0
v -1348 -896 0
v -1348 -797 0
v -1216 -797 0
v -1152 -928 0
v -1284 -928 0
v -1284 -829 0
v -1152 -829 0
v -1088 -960 0
v -1220 -960 0
v -1220 -861 0
v -1088 -861 0
v -1024 -992 0
v -1156 -992 0
v -1156 -893 0
v -1024 -893 0

# Texture cooridinates (Count = 4)
vt 0 0
vt 1 0
vt 1 1
vt 0 1

# Normal
vn 0 0 -1

# Mesh description
g toontown_mesh_0006

# Faces
f 1/1/1 2/2/1 3/3/1 4/4/1
f 5/1/1 6/2/1 7/3/1 8/4/1
f 9/1/1 10/2/1 11/3/1 12/4/1
f 13/1/1 14/2/1 15/3/1 16/4/1
f 17/1/1 18/2/1 19/3/1 20/4/1
f 21/1/1 22/2/1 23/3/1 24/4/1
f 25/1/1 26/2/1 27/3/1 28/4/1
f 29/1/1 30/2/1 31/3/1 32/4/1
f 33/1/1 34/2/1 35/3/1 36/4/1
f 37/1/1 38/2/1 39/3/1 40/4/1
f 41/1/1 42/2/1 43/3/1 44/4/1
f 45/1/1 46/2/1 47/3/1 48/4/1
f 49/1/1 50/2/1 51/3/1 52/4/1
f 53/1/1 54/2/1 55/3/1 56/4/1

